<svg width="24" height="24" viewBox="0 0 24 24" fill="none" xmlns="http://www.w3.org/2000/svg">
<g id="attach_file">
<mask id="mask0_97_1232" style="mask-type:alpha" maskUnits="userSpaceOnUse" x="0" y="0" width="24" height="24">
<rect id="Bounding box" width="24" height="24" fill="#D9D9D9"/>
</mask>
<g mask="url(#mask0_97_1232)">
<path id="attach_file_2" d="M12.5 15.75C12.5 17.4833 11.916 18.9583 10.748 20.175C9.58 21.3917 8.164 22 6.5 22C4.836 22 3.42 21.3917 2.252 20.175C1.084 18.9583 0.5 17.4833 0.5 15.75V6.5C0.5 5.25 0.92 4.1875 1.76 3.3125C2.6 2.4375 3.62 2 4.82 2C6.02 2 7.04 2.4375 7.88 3.3125C8.72 4.1875 9.14 5.25 9.14 6.5V15.25C9.14 16.0167 8.884 16.6667 8.372 17.2C7.86 17.7333 7.236 18 6.5 18C5.764 18 5.14 17.7333 4.628 17.2C4.116 16.6667 3.86 16.0167 3.86 15.25V6H5.78V15.25C5.78 15.4667 5.848 15.6458 5.984 15.7875C6.12 15.9292 6.292 16 6.5 16C6.708 16 6.88 15.9292 7.016 15.7875C7.152 15.6458 7.22 15.4667 7.22 15.25V6.5C7.204 5.8 6.968 5.20833 6.512 4.725C6.056 4.24167 5.492 4 4.82 4C4.148 4 3.58 4.24167 3.116 4.725C2.652 5.20833 2.42 5.8 2.42 6.5V15.75C2.404 16.9333 2.796 17.9375 3.596 18.7625C4.396 19.5875 5.364 20 6.5 20C7.62 20 8.572 19.5875 9.356 18.7625C10.14 17.9375 10.548 16.9333 10.58 15.75V6H12.5V15.75Z" fill="#3B3B3B"/>
</g>
</g>
</svg>
