<svg width="28" height="24" viewBox="0 0 28 24" fill="none" xmlns="http://www.w3.org/2000/svg">
  <g id="book_2">
    <mask id="mask0_67_159" style="mask-type:alpha" maskUnits="userSpaceOnUse" x="0" y="0" width="28" height="24">
      <rect id="Bounding box" width="27.831" height="24" fill="#D9D9D9" />
    </mask>
    <g mask="url(#mask0_67_159)">
      <path id="book_2_2"
        d="M8.83095 21C7.99246 21 7.27736 20.7449 6.68564 20.2346C6.09394 19.7244 5.7981 19.1077 5.7981 18.3846V6C5.7981 5.16153 6.13483 4.45192 6.8083 3.87115C7.48177 3.29038 8.30466 3 9.27697 3H22.0328V16.7692C21.5199 16.7692 21.0795 16.9279 20.7115 17.2452C20.3436 17.5625 20.1596 17.9423 20.1596 18.3846C20.1596 18.8269 20.3436 19.2067 20.7115 19.5241C21.0795 19.8414 21.5199 20 22.0328 20V21H8.83095ZM9.72299 15.7692H10.8826V4H9.72299V15.7692ZM8.83095 20H19.6891C19.469 19.7795 19.2992 19.5356 19.1795 19.2683C19.0598 19.001 19 18.7064 19 18.3846C19 18.0795 19.0587 17.7891 19.1762 17.5135C19.2936 17.2378 19.4646 16.9897 19.6891 16.7692H8.83095C8.29872 16.7692 7.85345 16.9279 7.49515 17.2452C7.13686 17.5625 6.95772 17.9423 6.95772 18.3846C6.95772 18.8436 7.13686 19.2276 7.49515 19.5366C7.85345 19.8455 8.29872 20 8.83095 20Z"
        fill="#15472E" />
    </g>
  </g>
</svg>