<svg width="24" height="24" viewBox="0 0 24 24" fill="none" xmlns="http://www.w3.org/2000/svg">
  <g id="edit">
    <mask id="mask0_190_1333" style="mask-type:alpha" maskUnits="userSpaceOnUse" x="0" y="0" width="24" height="24">
      <rect id="Bounding box" width="24" height="24" fill="#D9D9D9" />
    </mask>
    <g mask="url(#mask0_190_1333)">
      <path id="edit_2"
        d="M5.92018 19H7.34884L17.149 9.225L15.7203 7.8L5.92018 17.575V19ZM3.91504 21V16.75L17.149 3.575C17.3495 3.39167 17.5709 3.25 17.8132 3.15C18.0555 3.05 18.3103 3 18.5776 3C18.845 3 19.104 3.05 19.3546 3.15C19.6053 3.25 19.8225 3.4 20.0063 3.6L21.3848 5C21.5853 5.18333 21.7316 5.4 21.8235 5.65C21.9154 5.9 21.9613 6.15 21.9613 6.4C21.9613 6.66667 21.9154 6.92083 21.8235 7.1625C21.7316 7.40417 21.5853 7.625 21.3848 7.825L8.17596 21H3.91504ZM16.4221 8.525L15.7203 7.8L17.149 9.225L16.4221 8.525Z"
        fill="#3C3C3C" />
    </g>
  </g>
</svg>