<svg xmlns="http://www.w3.org/2000/svg" width="current" height="current" viewBox="0 0 68 68" fill="none">
  <g filter="url(#filter0_d_207_5816)">
    <circle cx="34" cy="32" r="25.5" fill="white" stroke="#15482D" />
    <path
      d="M35.45 40.05C34.6249 40.7898 33.3751 40.7898 32.55 40.05V40.05C30.8667 38.5333 29.475 37.225 28.375 36.125C27.275 35.025 26.4 34.0375 25.75 33.1625C25.1 32.2875 24.6458 31.4833 24.3875 30.75C24.1292 30.0167 24 29.2667 24 28.5C24 26.9333 24.525 25.625 25.575 24.575C26.625 23.525 27.9333 23 29.5 23C30.3667 23 31.1917 23.1833 31.975 23.55V23.55C33.1949 24.121 34.8051 24.121 36.025 23.55V23.55C36.8083 23.1833 37.6333 23 38.5 23C40.0667 23 41.375 23.525 42.425 24.575C43.475 25.625 44 26.9333 44 28.5C44 29.2667 43.8708 30.0167 43.6125 30.75C43.3542 31.4833 42.9 32.2875 42.25 33.1625C41.6 34.0375 40.725 35.025 39.625 36.125C38.525 37.225 37.1333 38.5333 35.45 40.05V40.05ZM32.0131 36.84C33.1338 37.8811 34.8662 37.8811 35.9869 36.84C36.727 36.1523 37.3814 35.5265 37.95 34.9625C38.9833 33.9375 39.8 33.0458 40.4 32.2875C41 31.5292 41.4167 30.8542 41.65 30.2625C41.8833 29.6708 42 29.0833 42 28.5C42 27.5 41.6667 26.6667 41 26C40.3333 25.3333 39.5 25 38.5 25C37.7167 25 36.9917 25.2208 36.325 25.6625C35.9518 25.9098 35.6439 26.1949 35.4012 26.5179C35.0585 26.9741 34.5706 27.35 34 27.35V27.35C33.4294 27.35 32.9415 26.9741 32.5988 26.5179C32.3561 26.1949 32.0482 25.9098 31.675 25.6625C31.0083 25.2208 30.2833 25 29.5 25C28.5 25 27.6667 25.3333 27 26C26.3333 26.6667 26 27.5 26 28.5C26 29.0833 26.1167 29.6708 26.35 30.2625C26.5833 30.8542 27 31.5292 27.6 32.2875C28.2 33.0458 29.0167 33.9375 30.05 34.9625C30.6186 35.5265 31.273 36.1523 32.0131 36.84Z"
      fill="#15482D" />
  </g>

</svg>