<svg width="current" height="current" viewBox="0 0 41 41" fill="none" xmlns="http://www.w3.org/2000/svg">
  <g id="Group 33776">
    <g id="Group 33775">
      <circle id="Ellipse 48" cx="20.5" cy="20.5" r="20" fill="#EE442B" />
    </g>
    <g id="keyboard_voice">
      <mask id="mask0_44_1878" style="mask-type:alpha" maskUnits="userSpaceOnUse" x="8" y="8" width="26" height="25">
        <rect id="Bounding box" x="8" y="8.5" width="25.147" height="24" fill="#D9D9D9" />
      </mask>
      <g mask="url(#mask0_44_1878)">
        <path id="keyboard_voice_2"
          d="M20.5735 22C19.8241 22 19.2069 21.7546 18.6921 21.2633C18.1782 20.7728 17.9301 20.1945 17.9301 19.5V13.5C17.9301 12.8055 18.1782 12.2272 18.6921 11.7367C19.2069 11.2454 19.8241 11 20.5735 11C21.3228 11 21.94 11.2454 22.4548 11.7367C22.9687 12.2272 23.2169 12.8055 23.2169 13.5V19.5C23.2169 20.1945 22.9687 20.7728 22.4548 21.2633C21.94 21.7546 21.3228 22 20.5735 22ZM20.5735 29C20.271 29 20.0257 28.7547 20.0257 28.4522V27.8641C20.0257 26.7721 19.2111 25.9403 18.274 25.6408C17.1593 25.2845 16.2004 24.662 15.3915 23.7651C14.5087 22.7863 13.9857 21.6912 13.8079 20.4722C13.7757 20.2514 13.96 20 14.2867 20C14.5685 20 14.866 20.2438 14.9493 20.643C15.1687 21.6941 15.6997 22.6147 16.5217 23.3992C17.639 24.4655 18.9992 25 20.5735 25C22.1477 25 23.508 24.4655 24.6253 23.3992C25.4473 22.6147 25.9783 21.6941 26.1976 20.643C26.2809 20.2438 26.5785 20 26.8602 20C27.187 20 27.3713 20.2514 27.3391 20.4722C27.1613 21.6912 26.6383 22.7863 25.7555 23.7651C24.9466 24.662 23.9877 25.2845 22.8729 25.6408C21.9359 25.9403 21.1213 26.7721 21.1213 27.8641V28.4522C21.1213 28.7547 20.876 29 20.5735 29ZM20.5735 21C20.9891 21 21.3645 20.8612 21.6652 20.5742C21.9672 20.286 22.1213 19.9168 22.1213 19.5V13.5C22.1213 13.0832 21.9672 12.714 21.6652 12.4258C21.3646 12.1388 20.9891 12 20.5735 12C20.1579 12 19.7824 12.1388 19.4817 12.4258C19.1798 12.714 19.0257 13.0832 19.0257 13.5V19.5C19.0257 19.9168 19.1798 20.286 19.4817 20.5742C19.7824 20.8612 20.1579 21 20.5735 21Z"
          fill="white" stroke="white" />
      </g>
    </g>
  </g>
</svg>