<svg width="24" height="24" viewBox="0 0 24 24" fill="none" xmlns="http://www.w3.org/2000/svg">
<g id="cached">
<mask id="mask0_98_937" style="mask-type:alpha" maskUnits="userSpaceOnUse" x="0" y="0" width="24" height="24">
<rect id="Bounding box" width="24" height="24" fill="#D9D9D9"/>
</mask>
<g mask="url(#mask0_98_937)">
<path id="cached_2" d="M12.05 19.5C9.95771 19.5 8.1763 18.7699 6.7058 17.3096C5.23528 15.8494 4.50002 14.0795 4.50002 12V10.6135L2.40002 12.7135L1.69232 12.0058L5.00002 8.69807L8.30772 12.0058L7.60002 12.7135L5.50002 10.6135V12C5.50002 13.8077 6.1356 15.3429 7.40675 16.6058C8.67791 17.8686 10.2257 18.5 12.05 18.5C12.4449 18.5 12.8475 18.4596 13.2577 18.3788C13.668 18.2981 14.0667 18.1769 14.4539 18.0154L15.2039 18.7654C14.7116 19.0038 14.1994 19.1859 13.6673 19.3116C13.1353 19.4372 12.5962 19.5 12.05 19.5ZM19 15.3019L15.6923 11.9942L16.4 11.2865L18.5 13.3865V12C18.5 10.1923 17.8644 8.65706 16.5933 7.39422C15.3221 6.13141 13.7744 5.5 11.95 5.5C11.5552 5.5 11.1526 5.54038 10.7423 5.62115C10.3321 5.70192 9.93336 5.82308 9.54617 5.98463L8.79617 5.23463C9.28847 4.99616 9.80066 4.8141 10.3327 4.68845C10.8648 4.56282 11.4039 4.5 11.95 4.5C14.0423 4.5 15.8237 5.23012 17.2942 6.69037C18.7648 8.15064 19.5 9.92052 19.5 12V13.3865L21.6 11.2865L22.3077 11.9942L19 15.3019Z" fill="#BABABA"/>
</g>
</g>
</svg>
