<svg width="current" height="current" viewBox="0 0 28 28" fill="none" xmlns="http://www.w3.org/2000/svg">
  <g id="replay">
    <mask id="mask0_98_1151" style="mask-type:alpha" maskUnits="userSpaceOnUse" x="0" y="0" width="28" height="28">
      <rect id="Bounding box" width="28" height="28" fill="#D9D9D9" />
    </mask>
    <g mask="url(#mask0_98_1151)">
      <path id="replay_2"
        d="M14 24.6667C12.672 24.6667 11.4425 24.4151 10.3011 23.9185C9.13757 23.4122 8.13494 22.7332 7.28419 21.8825C6.43344 21.0317 5.75446 20.0291 5.24821 18.8656C4.88547 18.032 4.65423 17.1532 4.55534 16.2253C4.55482 16.2204 4.55511 16.2182 4.55513 16.2181L4.5552 16.2177C4.55525 16.2176 4.5571 16.2125 4.5649 16.2044C4.58193 16.1869 4.61666 16.1667 4.66667 16.1667C4.70672 16.1667 4.75316 16.1807 4.80338 16.2291C4.85738 16.2811 4.90214 16.3626 4.91448 16.4583C5.17266 18.4617 6.04524 20.2053 7.50331 21.6634C9.27873 23.4388 11.4643 24.3334 14 24.3334C16.5357 24.3334 18.7213 23.4388 20.4967 21.6634C22.2721 19.888 23.1667 17.7024 23.1667 15.1667C23.1667 12.631 22.2721 10.4454 20.4967 8.67C18.7213 6.89458 16.5357 6.00002 14 6.00002C13.0445 6.00002 12.566 7.15524 13.2416 7.83087L14.2314 8.82065L14.1116 8.94476C14.0434 9.01538 13.9306 9.01637 13.8611 8.94695L12.1618 7.24756C11.3807 6.46652 11.3807 5.20019 12.1618 4.41914L13.8611 2.71975C13.9306 2.65034 14.0434 2.65133 14.1116 2.72195L14.2314 2.84606L13.2416 3.83584C12.566 4.51147 13.0445 5.66669 14 5.66669C15.328 5.66669 16.5575 5.91823 17.6989 6.4149C18.8624 6.92115 19.8651 7.60013 20.7158 8.45088C21.5666 9.30163 22.2455 10.3043 22.7518 11.4678C23.2485 12.6092 23.5 13.8386 23.5 15.1667C23.5 16.4947 23.2485 17.7241 22.7518 18.8656C22.2455 20.0291 21.5666 21.0317 20.7158 21.8825C19.8651 22.7332 18.8624 23.4122 17.6989 23.9185C16.5575 24.4151 15.328 24.6667 14 24.6667Z"
        fill="#3C3C3C" stroke="black" stroke-width="2" />
    </g>
  </g>
</svg>