<svg width="40" height="40" viewBox="0 0 40 40" fill="none" xmlns="http://www.w3.org/2000/svg">
  <g id="Group 33777">
    <g id="keyboard_voice">
      <mask id="mask0_98_1121" style="mask-type:alpha" maskUnits="userSpaceOnUse" x="7" y="7" width="26" height="25">
        <rect id="Bounding box" x="7.5" y="7.5" width="25.147" height="24" fill="#D9D9D9" />
      </mask>
      <g mask="url(#mask0_98_1121)">
        <path id="Vector"
          d="M11.1701 15.939C10.3469 16.1952 10.2601 17.2509 11.0325 17.621L16.4562 20.2194C16.5628 20.2705 16.6824 20.2932 16.802 20.2851C16.9215 20.2769 17.0363 20.2383 17.1339 20.1733L23.5309 15.9079C23.8312 15.7078 24.2007 16.0528 23.9864 16.3332L19.4177 22.3047C19.348 22.3958 19.3064 22.503 19.2976 22.6147C19.2888 22.7264 19.3131 22.8382 19.3678 22.9378L22.1525 28.0027C22.5488 28.7238 23.6792 28.6432 23.9541 27.8742L29.7279 11.706C29.9834 10.9905 29.2549 10.3104 28.4881 10.5484L11.1701 15.939Z"
          fill="currentColor" />
      </g>
    </g>
  </g>
</svg>