<svg width="current" height="current" viewBox="0 0 41 41" fill="none" xmlns="http://www.w3.org/2000/svg">
  <g id="Group 33776">
    <g id="Group 33775">
      <circle id="Ellipse 48" cx="20.5" cy="20.5" r="20" fill="#EE442B" />
    </g>
    <g id="keyboard_voice">
      <mask id="mask0_96_1109" style="mask-type:alpha" maskUnits="userSpaceOnUse" x="8" y="8" width="24" height="24">
        <rect id="Bounding box" x="8" y="8" width="24" height="24" fill="#D9D9D9" />
      </mask>
      <g mask="url(#mask0_96_1109)">
        <path id="Vector"
          d="M11.6256 16.439C10.8571 16.6952 10.776 17.7509 11.4971 18.121L16.5608 20.7194C16.6603 20.7705 16.772 20.7932 16.8836 20.7851C16.9952 20.7769 17.1024 20.7383 17.1935 20.6733L23.1658 16.4079C23.4461 16.2078 23.7912 16.5528 23.5911 16.8332L19.3257 22.8047C19.2606 22.8958 19.2218 23.003 19.2135 23.1147C19.2053 23.2264 19.228 23.3382 19.2791 23.4378L21.8789 28.5027C22.2489 29.2238 23.3042 29.1432 23.5609 28.3742L28.9514 12.206C29.1899 11.4905 28.5098 10.8104 27.7939 11.0484L11.6256 16.439Z"
          fill="white" />
      </g>
    </g>
  </g>
</svg>