<svg xmlns="http://www.w3.org/2000/svg" width="current" height="current" viewBox="0 0 68 68" fill="none">
  <g filter="url(#filter0_d_207_5815)">
    <circle cx="34" cy="32" r="25.5" fill="#15482D" stroke="#EAEAEA" />
    <path
      d="M28 43C27.45 43 26.9792 42.8042 26.5875 42.4125C26.1958 42.0208 26 41.55 26 41V30C26 29.45 26.1958 28.9792 26.5875 28.5875C26.9792 28.1958 27.45 28 28 28H30C30.5523 28 31 28.4477 31 29V29C31 29.5523 30.5523 30 30 30H29.5C28.6716 30 28 30.6716 28 31.5V38C28 39.6569 29.3431 41 31 41H37C38.6569 41 40 39.6569 40 38V31.5C40 30.6716 39.3284 30 38.5 30H38C37.4477 30 37 29.5523 37 29V29C37 28.4477 37.4477 28 38 28H40C40.55 28 41.0208 28.1958 41.4125 28.5875C41.8042 28.9792 42 29.45 42 30V41C42 41.55 41.8042 42.0208 41.4125 42.4125C41.0208 42.8042 40.55 43 40 43H28ZM34 36C33.4477 36 33 35.5523 33 35V26.4208C33 25.8319 32.288 25.537 31.8716 25.9534V25.9534C31.6118 26.2132 31.1901 26.2113 30.9326 25.9493L30.6938 25.7062C30.3096 25.3152 30.3124 24.6876 30.7 24.3L31.9912 23.0088C33.1006 21.8994 34.8994 21.8994 36.0088 23.0089L37.3 24.3C37.6876 24.6876 37.6904 25.3152 37.3062 25.7062L37.0674 25.9493C36.8099 26.2113 36.3882 26.2132 36.1284 25.9534V25.9534C35.712 25.537 35 25.8319 35 26.4208V35C35 35.5523 34.5523 36 34 36V36Z"
      fill="white" />
  </g>

</svg>