<svg width="40" height="40" viewBox="0 0 40 40" fill="none" xmlns="http://www.w3.org/2000/svg">
<g id="counter_2">
<mask id="mask0_129_1882" style="mask-type:alpha" maskUnits="userSpaceOnUse" x="0" y="0" width="40" height="40">
<rect id="Bounding box" width="40" height="40" fill="#D9D9D9"/>
</mask>
<g mask="url(#mask0_129_1882)">
<path id="counter_2_2" d="M20.0056 35C17.9313 35 15.9812 34.6064 14.1552 33.8192C12.3291 33.032 10.7407 31.9636 9.38996 30.6141C8.03921 29.2646 6.96986 27.6777 6.18192 25.8534C5.39397 24.0291 5 22.0798 5 20.0056C5 17.9313 5.3936 15.9812 6.18079 14.1552C6.96801 12.3291 8.03637 10.7407 9.38587 9.38996C10.7354 8.03921 12.3223 6.96986 14.1466 6.18192C15.9709 5.39397 17.9202 5 19.9944 5C22.0687 5 24.0188 5.3936 25.8448 6.18079C27.6709 6.96801 29.2593 8.03637 30.61 9.38587C31.9608 10.7354 33.0301 12.3223 33.8181 14.1466C34.606 15.9709 35 17.9202 35 19.9944C35 22.0687 34.6064 24.0188 33.8192 25.8448C33.032 27.6709 31.9636 29.2593 30.6141 30.61C29.2646 31.9608 27.6777 33.0301 25.8534 33.8181C24.0291 34.606 22.0798 35 20.0056 35ZM20 33.3333C23.7222 33.3333 26.875 32.0417 29.4583 29.4583C32.0417 26.875 33.3333 23.7222 33.3333 20C33.3333 16.2778 32.0417 13.125 29.4583 10.5417C26.875 7.95833 23.7222 6.66667 20 6.66667C16.2778 6.66667 13.125 7.95833 10.5417 10.5417C7.95833 13.125 6.66667 16.2778 6.66667 20C6.66667 23.7222 7.95833 26.875 10.5417 29.4583C13.125 32.0417 16.2778 33.3333 20 33.3333ZM15.8333 27.5H24.1667V25.8333H17.5V21.859C17.5 21.5598 17.5962 21.3141 17.7885 21.1218C17.9808 20.9295 18.2265 20.8333 18.5256 20.8333H21.4744C22.2415 20.8333 22.8819 20.5764 23.3958 20.0625C23.9097 19.5486 24.1667 18.9081 24.1667 18.141V15.1923C24.1667 14.4252 23.9097 13.7847 23.3958 13.2708C22.8819 12.7569 22.2379 12.5 21.4637 12.5H15.8333V14.1667H21.4744C21.7735 14.1667 22.0192 14.2628 22.2115 14.4551C22.4038 14.6474 22.5 14.8932 22.5 15.1923V18.141C22.5 18.4402 22.4038 18.6859 22.2115 18.8782C22.0192 19.0705 21.7735 19.1667 21.4744 19.1667H18.5256C17.7585 19.1667 17.1181 19.4236 16.6042 19.9375C16.0903 20.4514 15.8333 21.0954 15.8333 21.8696V27.5Z" fill="#15482D"/>
</g>
</g>
</svg>
